<?xml version="1.0" standalone="no"?>
<!DOCTYPE svg PUBLIC "-//W3C//DTD SVG 20010904//EN"
 "http://www.w3.org/TR/2001/REC-SVG-20010904/DTD/svg10.dtd">
<svg version="1.0" xmlns="http://www.w3.org/2000/svg"
 width="216.000000pt" height="217.000000pt" viewBox="0 0 216.000000 217.000000"
 preserveAspectRatio="xMidYMid meet">

<g transform="translate(0.000000,217.000000) scale(0.100000,-0.100000)"
fill="#000000" stroke="none">
<path d="M860 2110 c0 -12 21 -34 61 -60 33 -23 59 -45 57 -48 -2 -4 -12 -24
-23 -44 l-19 -38 -75 0 c-58 0 -84 -5 -108 -20 -60 -36 -63 -53 -63 -318 0
-232 1 -240 23 -273 40 -59 41 -59 389 -57 l318 3 32 33 33 32 3 250 c3 277 0
293 -61 330 -24 15 -50 20 -108 20 l-75 0 -19 38 c-11 20 -19 40 -20 44 0 4
28 28 63 53 35 25 61 52 59 58 -8 26 -42 17 -110 -28 -63 -43 -76 -47 -127
-47 -51 0 -64 4 -126 46 -75 50 -104 58 -104 26z m100 -430 c19 -35 12 -77
-16 -99 -35 -28 -69 -26 -99 4 -42 41 -28 103 26 123 30 11 76 -3 89 -28z
m379 9 c43 -41 8 -129 -52 -129 -81 0 -108 114 -34 145 35 15 57 10 86 -16z"/>
<path d="M601 1016 l-166 -163 -34 9 c-64 17 -180 -27 -166 -63 3 -9 19 -26
35 -37 24 -18 34 -20 55 -12 40 15 70 12 98 -10 34 -27 45 -81 24 -114 -15
-22 -14 -25 22 -60 35 -35 38 -36 53 -19 36 42 51 101 39 156 -8 35 -7 38 58
102 l66 67 5 -139 c6 -159 16 -185 81 -211 l39 -15 1 -101 c1 -56 1 -104 0
-108 0 -5 49 -8 109 -8 l110 0 0 110 0 110 60 0 60 0 0 -110 0 -111 108 3 107
3 0 108 c0 88 3 107 15 107 26 0 79 38 95 69 11 23 15 62 15 163 l0 132 68
-67 67 -66 -4 -52 c-4 -62 11 -119 39 -144 19 -17 21 -17 54 19 33 36 33 38
19 67 -18 37 -11 72 23 106 20 20 32 24 62 21 20 -3 45 -8 54 -12 13 -6 26 1
48 25 16 19 29 38 27 43 -9 26 -83 51 -147 49 l-65 -1 -161 159 -160 159 -324
0 -324 0 -165 -164z m361 -26 c2 -5 1 -35 0 -65 l-4 -55 -64 0 -64 0 0 65 0
65 64 0 c35 0 66 -4 68 -10z m198 -55 l0 -65 -70 0 -70 0 0 65 0 65 70 0 70 0
0 -65z m190 0 l0 -65 -65 0 -65 0 0 43 c0 23 -3 52 -6 65 -6 21 -4 22 65 22
l71 0 0 -65z"/>
<path d="M832 244 c-28 -19 -52 -65 -52 -99 l0 -26 141 2 c156 1 159 3 139 63
-19 58 -51 76 -134 76 -49 0 -79 -5 -94 -16z"/>
<path d="M1157 240 c-28 -22 -52 -82 -43 -106 5 -12 30 -15 147 -13 l141 1 -5
41 c-4 30 -15 50 -37 70 -27 24 -38 27 -104 27 -58 0 -79 -4 -99 -20z"/>
</g>
</svg>
