<?xml version="1.0" encoding="UTF-8"?>
<svg xmlns="http://www.w3.org/2000/svg" xmlns:xlink="http://www.w3.org/1999/xlink" width="1125pt" height="749.999995pt" viewBox="0 0 1125 749.999995" version="1.2">
<defs>
<clipPath id="clip1">
  <path d="M 420.886719 420.855469 L 572.84375 420.855469 L 572.84375 682.765625 L 420.886719 682.765625 Z M 420.886719 420.855469 "/>
</clipPath>
<clipPath id="clip2">
  <path d="M 419.144531 66.777344 L 571.105469 66.777344 L 571.105469 218.738281 L 419.144531 218.738281 Z M 419.144531 66.777344 "/>
</clipPath>
<clipPath id="clip3">
  <path d="M 283.039062 413.328125 L 435 413.328125 L 435 565.285156 L 283.039062 565.285156 Z M 283.039062 413.328125 "/>
</clipPath>
<clipPath id="clip4">
  <path d="M 387.417969 232.054688 L 587.558594 232.054688 L 587.558594 432.195312 L 387.417969 432.195312 Z M 387.417969 232.054688 "/>
</clipPath>
<clipPath id="clip5">
  <path d="M 299.226562 172.09375 L 419.066406 172.09375 L 419.066406 291.933594 L 299.226562 291.933594 Z M 299.226562 172.09375 "/>
</clipPath>
<clipPath id="clip6">
  <path d="M 255.457031 293.410156 L 375.292969 293.410156 L 375.292969 413.246094 L 255.457031 413.246094 Z M 255.457031 293.410156 "/>
</clipPath>
<clipPath id="clip7">
  <path d="M 359.1875 565.621094 L 450.609375 565.621094 L 450.609375 657.042969 L 359.1875 657.042969 Z M 359.1875 565.621094 "/>
</clipPath>
<clipPath id="clip8">
  <path d="M 575 66.777344 L 867.984375 66.777344 L 867.984375 675.730469 L 575 675.730469 Z M 575 66.777344 "/>
</clipPath>
</defs>
<g id="surface1">
<g clip-path="url(#clip1)" clip-rule="nonzero">
<path style=" stroke:none;fill-rule:nonzero;fill:rgb(2.749634%,3.138733%,10.198975%);fill-opacity:1;" d="M 426.132812 566.210938 L 459.085938 577.917969 C 459.925781 578.210938 460.574219 578.917969 460.863281 579.832031 C 462.609375 585.523438 464.917969 591.097656 467.707031 596.378906 C 468.152344 597.230469 468.191406 598.207031 467.8125 599 L 452.808594 630.589844 C 451.53125 633.292969 451.96875 636.460938 453.914062 638.648438 C 457.441406 642.636719 461.179688 646.382812 465.011719 649.777344 C 467.160156 651.683594 470.5 652.125 473.082031 650.882812 L 504.664062 635.886719 C 505.46875 635.503906 506.496094 635.5625 507.28125 635.96875 C 510.082031 637.46875 512.738281 638.726562 515.410156 639.832031 C 518.21875 640.980469 521.070312 641.992188 523.839844 642.824219 C 524.777344 643.121094 525.484375 643.773438 525.78125 644.625 L 537.496094 677.59375 C 538.539062 680.421875 541.097656 682.339844 543.984375 682.484375 C 546.492188 682.640625 549.085938 682.71875 551.6875 682.71875 C 554.285156 682.71875 556.976562 682.640625 559.710938 682.484375 C 562.675781 682.285156 565.222656 680.351562 566.203125 677.5625 L 577.910156 644.609375 C 578.203125 643.773438 578.910156 643.121094 579.824219 642.832031 C 585.515625 641.085938 591.089844 638.777344 596.371094 635.988281 C 597.214844 635.546875 598.179688 635.496094 598.992188 635.886719 L 630.582031 650.886719 C 631.582031 651.359375 632.695312 651.609375 633.792969 651.609375 C 635.59375 651.609375 637.316406 650.957031 638.636719 649.78125 C 642.625 646.253906 646.371094 642.515625 649.765625 638.683594 C 651.703125 636.507812 652.148438 633.257812 650.875 630.613281 L 635.878906 599.03125 C 635.492188 598.214844 635.527344 597.25 635.960938 596.414062 C 637.457031 593.613281 638.71875 590.957031 639.824219 588.285156 C 640.972656 585.476562 641.984375 582.625 642.816406 579.855469 C 643.113281 578.917969 643.761719 578.214844 644.613281 577.917969 L 677.585938 566.199219 C 680.410156 565.160156 682.328125 562.597656 682.472656 559.710938 C 682.792969 554.640625 682.792969 549.503906 682.472656 543.984375 C 682.277344 541.019531 680.34375 538.472656 677.554688 537.492188 L 644.601562 525.785156 C 643.761719 525.492188 643.113281 524.785156 642.824219 523.875 C 641.074219 518.179688 638.769531 512.605469 635.976562 507.324219 C 635.535156 506.472656 635.492188 505.496094 635.875 504.707031 L 650.878906 473.113281 C 652.152344 470.410156 651.71875 467.246094 649.773438 465.058594 C 646.246094 461.070312 642.507812 457.324219 638.675781 453.929688 C 636.527344 452.019531 633.183594 451.582031 630.605469 452.820312 L 599.023438 467.820312 C 598.214844 468.199219 597.195312 468.144531 596.402344 467.734375 C 593.601562 466.238281 590.949219 464.976562 588.277344 463.871094 C 585.464844 462.726562 582.617188 461.714844 579.847656 460.878906 C 578.910156 460.582031 578.203125 459.933594 577.90625 459.082031 L 566.191406 426.109375 C 565.148438 423.285156 562.585938 421.367188 559.703125 421.222656 C 554.691406 420.90625 549.453125 420.90625 543.976562 421.222656 C 541.011719 421.417969 538.460938 423.351562 537.484375 426.140625 L 525.773438 459.097656 C 525.480469 459.933594 524.777344 460.582031 523.863281 460.871094 C 518.171875 462.621094 512.597656 464.929688 507.316406 467.71875 C 506.472656 468.15625 505.503906 468.210938 504.695312 467.820312 L 473.105469 452.816406 C 470.460938 451.570312 467.179688 452.023438 465.050781 453.921875 C 461.0625 457.449219 457.316406 461.1875 453.917969 465.019531 C 451.984375 467.199219 451.539062 470.445312 452.8125 473.089844 L 467.808594 504.671875 C 468.195312 505.488281 468.160156 506.457031 467.726562 507.292969 C 466.230469 510.09375 464.96875 512.746094 463.863281 515.417969 C 462.714844 518.230469 461.703125 521.078125 460.871094 523.847656 C 460.574219 524.785156 459.925781 525.492188 459.074219 525.789062 L 426.101562 537.503906 C 423.277344 538.546875 421.359375 541.109375 421.214844 543.992188 C 420.894531 549.066406 420.894531 554.203125 421.214844 559.71875 C 421.410156 562.683594 423.34375 565.230469 426.132812 566.210938 Z M 498.945312 529.925781 C 507.839844 508.457031 528.617188 494.585938 551.878906 494.585938 C 559.398438 494.585938 566.761719 496.058594 573.769531 498.957031 C 602.921875 511.03125 616.816406 544.597656 604.738281 573.777344 C 595.84375 595.246094 575.066406 609.117188 551.804688 609.117188 C 544.289062 609.117188 536.925781 607.648438 529.917969 604.75 C 500.765625 592.671875 486.871094 559.105469 498.945312 529.925781 Z M 498.945312 529.925781 "/>
</g>
<g clip-path="url(#clip2)" clip-rule="nonzero">
<path style=" stroke:none;fill-rule:nonzero;fill:rgb(2.749634%,3.138733%,10.198975%);fill-opacity:1;" d="M 422.191406 151.113281 L 441.308594 157.90625 C 441.796875 158.074219 442.171875 158.484375 442.339844 159.015625 C 443.355469 162.316406 444.691406 165.550781 446.3125 168.613281 C 446.570312 169.109375 446.59375 169.675781 446.371094 170.136719 L 437.667969 188.464844 C 436.925781 190.03125 437.179688 191.867188 438.308594 193.136719 C 440.355469 195.453125 442.523438 197.625 444.746094 199.59375 C 445.992188 200.703125 447.929688 200.957031 449.429688 200.238281 L 467.753906 191.535156 C 468.21875 191.316406 468.816406 191.347656 469.273438 191.585938 C 470.898438 192.453125 472.4375 193.1875 473.988281 193.828125 C 475.617188 194.492188 477.269531 195.078125 478.878906 195.5625 C 479.421875 195.734375 479.832031 196.113281 480.003906 196.605469 L 486.800781 215.734375 C 487.40625 217.375 488.890625 218.488281 490.566406 218.570312 C 492.023438 218.664062 493.523438 218.710938 495.035156 218.710938 C 496.542969 218.710938 498.105469 218.664062 499.691406 218.570312 C 501.410156 218.457031 502.890625 217.335938 503.457031 215.71875 L 510.25 196.597656 C 510.421875 196.113281 510.828125 195.734375 511.359375 195.566406 C 514.660156 194.554688 517.894531 193.214844 520.960938 191.597656 C 521.449219 191.339844 522.011719 191.308594 522.480469 191.535156 L 540.808594 200.238281 C 541.390625 200.515625 542.035156 200.660156 542.671875 200.660156 C 543.714844 200.660156 544.714844 200.28125 545.484375 199.597656 C 547.796875 197.550781 549.972656 195.382812 551.941406 193.160156 C 553.0625 191.898438 553.320312 190.011719 552.582031 188.476562 L 543.882812 170.15625 C 543.65625 169.679688 543.679688 169.121094 543.929688 168.636719 C 544.796875 167.011719 545.53125 165.46875 546.171875 163.917969 C 546.835938 162.289062 547.421875 160.636719 547.90625 159.027344 C 548.078125 158.484375 548.457031 158.074219 548.949219 157.902344 L 568.078125 151.105469 C 569.71875 150.5 570.832031 149.015625 570.914062 147.339844 C 571.101562 144.398438 571.101562 141.417969 570.914062 138.214844 C 570.800781 136.496094 569.679688 135.019531 568.0625 134.449219 L 548.941406 127.65625 C 548.457031 127.488281 548.078125 127.078125 547.910156 126.546875 C 546.898438 123.246094 545.558594 120.011719 543.941406 116.949219 C 543.683594 116.453125 543.660156 115.886719 543.878906 115.425781 L 552.585938 97.097656 C 553.324219 95.53125 553.074219 93.695312 551.941406 92.425781 C 549.894531 90.109375 547.726562 87.9375 545.503906 85.96875 C 544.257812 84.859375 542.320312 84.605469 540.820312 85.324219 L 522.5 94.027344 C 522.03125 94.246094 521.4375 94.214844 520.980469 93.976562 C 519.355469 93.109375 517.8125 92.375 516.265625 91.734375 C 514.632812 91.070312 512.980469 90.484375 511.371094 90 C 510.828125 89.828125 510.417969 89.449219 510.246094 88.957031 L 503.449219 69.828125 C 502.84375 68.1875 501.359375 67.074219 499.683594 66.992188 C 496.777344 66.808594 493.738281 66.808594 490.5625 66.992188 C 488.839844 67.105469 487.363281 68.226562 486.792969 69.847656 L 480 88.964844 C 479.832031 89.449219 479.421875 89.828125 478.890625 89.996094 C 475.589844 91.007812 472.355469 92.347656 469.292969 93.96875 C 468.800781 94.222656 468.242188 94.253906 467.769531 94.027344 L 449.441406 85.324219 C 447.910156 84.597656 446.003906 84.863281 444.769531 85.964844 C 442.453125 88.011719 440.28125 90.179688 438.3125 92.402344 C 437.1875 93.664062 436.929688 95.550781 437.667969 97.085938 L 446.371094 115.40625 C 446.59375 115.882812 446.574219 116.441406 446.324219 116.925781 C 445.453125 118.550781 444.722656 120.09375 444.082031 121.644531 C 443.414062 123.273438 442.828125 124.925781 442.34375 126.535156 C 442.171875 127.078125 441.796875 127.488281 441.300781 127.660156 L 422.171875 134.457031 C 420.53125 135.0625 419.417969 136.546875 419.335938 138.222656 C 419.152344 141.164062 419.152344 144.144531 419.335938 147.34375 C 419.449219 149.066406 420.570312 150.542969 422.191406 151.113281 Z M 464.4375 130.058594 C 469.597656 117.605469 481.652344 109.554688 495.148438 109.554688 C 499.507812 109.554688 503.78125 110.410156 507.847656 112.089844 C 524.761719 119.097656 532.820312 138.570312 525.816406 155.5 C 520.65625 167.957031 508.601562 176.007812 495.105469 176.007812 C 490.742188 176.007812 486.46875 175.152344 482.40625 173.472656 C 465.492188 166.464844 457.429688 146.988281 464.4375 130.058594 Z M 464.4375 130.058594 "/>
</g>
<g clip-path="url(#clip3)" clip-rule="nonzero">
<path style=" stroke:none;fill-rule:nonzero;fill:rgb(2.749634%,3.138733%,10.198975%);fill-opacity:1;" d="M 286.085938 497.660156 L 305.203125 504.457031 C 305.691406 504.625 306.066406 505.035156 306.234375 505.566406 C 307.25 508.867188 308.585938 512.101562 310.207031 515.164062 C 310.464844 515.660156 310.488281 516.226562 310.265625 516.6875 L 301.5625 535.015625 C 300.820312 536.582031 301.074219 538.417969 302.203125 539.6875 C 304.25 542.003906 306.417969 544.175781 308.640625 546.144531 C 309.886719 547.253906 311.824219 547.507812 313.324219 546.789062 L 331.648438 538.085938 C 332.113281 537.867188 332.710938 537.898438 333.167969 538.136719 C 334.792969 539.003906 336.332031 539.734375 337.882812 540.378906 C 339.511719 541.042969 341.164062 541.628906 342.773438 542.113281 C 343.316406 542.285156 343.726562 542.664062 343.898438 543.15625 L 350.695312 562.285156 C 351.300781 563.925781 352.785156 565.039062 354.460938 565.121094 C 355.917969 565.214844 357.417969 565.257812 358.929688 565.257812 C 360.4375 565.257812 361.996094 565.214844 363.585938 565.121094 C 365.304688 565.007812 366.785156 563.886719 367.351562 562.265625 L 374.144531 543.148438 C 374.316406 542.664062 374.722656 542.285156 375.253906 542.117188 C 378.554688 541.105469 381.789062 539.765625 384.855469 538.144531 C 385.34375 537.890625 385.90625 537.859375 386.375 538.085938 L 404.703125 546.789062 C 405.285156 547.066406 405.929688 547.210938 406.566406 547.210938 C 407.609375 547.210938 408.609375 546.832031 409.378906 546.148438 C 411.691406 544.101562 413.863281 541.933594 415.835938 539.710938 C 416.957031 538.449219 417.214844 536.5625 416.476562 535.027344 L 407.777344 516.707031 C 407.550781 516.230469 407.574219 515.671875 407.824219 515.1875 C 408.691406 513.558594 409.425781 512.019531 410.066406 510.46875 C 410.730469 508.839844 411.316406 507.1875 411.800781 505.578125 C 411.972656 505.035156 412.351562 504.625 412.84375 504.453125 L 431.972656 497.65625 C 433.613281 497.050781 434.726562 495.566406 434.808594 493.890625 C 434.996094 490.949219 434.996094 487.96875 434.808594 484.765625 C 434.695312 483.046875 433.574219 481.570312 431.957031 481 L 412.835938 474.207031 C 412.351562 474.039062 411.972656 473.628906 411.804688 473.097656 C 410.792969 469.796875 409.453125 466.5625 407.835938 463.496094 C 407.578125 463.003906 407.554688 462.4375 407.773438 461.976562 L 416.480469 443.648438 C 417.21875 442.082031 416.96875 440.242188 415.835938 438.972656 C 413.789062 436.660156 411.621094 434.488281 409.398438 432.515625 C 408.152344 431.410156 406.214844 431.15625 404.714844 431.875 L 386.394531 440.578125 C 385.925781 440.796875 385.332031 440.765625 384.875 440.527344 C 383.25 439.660156 381.707031 438.925781 380.15625 438.285156 C 378.527344 437.621094 376.875 437.035156 375.265625 436.550781 C 374.722656 436.378906 374.3125 436 374.140625 435.507812 L 367.34375 416.378906 C 366.738281 414.738281 365.253906 413.625 363.578125 413.542969 C 360.671875 413.359375 357.632812 413.359375 354.457031 413.542969 C 352.734375 413.65625 351.257812 414.777344 350.6875 416.394531 L 343.894531 435.515625 C 343.726562 436 343.316406 436.378906 342.785156 436.546875 C 339.484375 437.558594 336.25 438.898438 333.1875 440.519531 C 332.695312 440.773438 332.136719 440.804688 331.664062 440.578125 L 313.335938 431.871094 C 311.804688 431.148438 309.898438 431.414062 308.664062 432.515625 C 306.347656 434.5625 304.175781 436.730469 302.207031 438.953125 C 301.082031 440.214844 300.824219 442.101562 301.5625 443.636719 L 310.265625 461.957031 C 310.488281 462.433594 310.46875 462.992188 310.21875 463.476562 C 309.347656 465.101562 308.617188 466.644531 307.976562 468.191406 C 307.308594 469.824219 306.722656 471.476562 306.238281 473.082031 C 306.066406 473.628906 305.691406 474.035156 305.195312 474.210938 L 286.066406 481.007812 C 284.425781 481.609375 283.3125 483.097656 283.230469 484.769531 C 283.046875 487.714844 283.046875 490.695312 283.230469 493.894531 C 283.34375 495.617188 284.464844 497.09375 286.085938 497.660156 Z M 328.332031 476.609375 C 333.488281 464.15625 345.546875 456.105469 359.042969 456.105469 C 363.402344 456.105469 367.675781 456.960938 371.742188 458.640625 C 388.65625 465.648438 396.714844 485.121094 389.710938 502.050781 C 384.550781 514.507812 372.496094 522.554688 359 522.554688 C 354.636719 522.554688 350.363281 521.703125 346.300781 520.019531 C 329.386719 513.015625 321.324219 493.539062 328.332031 476.609375 Z M 328.332031 476.609375 "/>
</g>
<g clip-path="url(#clip4)" clip-rule="nonzero">
<path style=" stroke:none;fill-rule:nonzero;fill:rgb(2.749634%,3.138733%,10.198975%);fill-opacity:1;" d="M 391.425781 343.128906 L 416.609375 352.074219 C 417.25 352.300781 417.746094 352.835938 417.964844 353.535156 C 419.300781 357.886719 421.066406 362.144531 423.195312 366.179688 C 423.535156 366.832031 423.566406 367.578125 423.277344 368.183594 L 411.8125 392.324219 C 410.835938 394.390625 411.167969 396.808594 412.65625 398.480469 C 415.351562 401.527344 418.207031 404.390625 421.136719 406.984375 C 422.777344 408.445312 425.328125 408.78125 427.304688 407.832031 L 451.4375 396.371094 C 452.054688 396.078125 452.835938 396.121094 453.4375 396.433594 C 455.578125 397.578125 457.605469 398.542969 459.648438 399.386719 C 461.796875 400.261719 463.972656 401.035156 466.089844 401.671875 C 466.808594 401.898438 467.34375 402.398438 467.574219 403.046875 L 476.527344 428.242188 C 477.320312 430.402344 479.277344 431.867188 481.484375 431.976562 C 483.402344 432.097656 485.382812 432.160156 487.371094 432.160156 C 489.355469 432.160156 491.410156 432.097656 493.5 431.976562 C 495.765625 431.828125 497.714844 430.347656 498.460938 428.21875 L 507.410156 403.035156 C 507.632812 402.398438 508.171875 401.898438 508.871094 401.679688 C 513.21875 400.34375 517.480469 398.582031 521.515625 396.449219 C 522.160156 396.113281 522.898438 396.070312 523.515625 396.371094 L 547.65625 407.832031 C 548.421875 408.195312 549.273438 408.386719 550.113281 408.386719 C 551.484375 408.386719 552.804688 407.886719 553.8125 406.988281 C 556.859375 404.292969 559.722656 401.4375 562.316406 398.507812 C 563.796875 396.84375 564.136719 394.363281 563.164062 392.339844 L 551.703125 368.210938 C 551.410156 367.585938 551.4375 366.847656 551.765625 366.207031 C 552.910156 364.066406 553.875 362.039062 554.71875 359.996094 C 555.597656 357.847656 556.367188 355.671875 557.007812 353.554688 C 557.234375 352.839844 557.730469 352.300781 558.378906 352.074219 L 583.574219 343.121094 C 585.734375 342.324219 587.199219 340.367188 587.308594 338.160156 C 587.554688 334.285156 587.554688 330.359375 587.308594 326.144531 C 587.160156 323.878906 585.679688 321.929688 583.550781 321.183594 L 558.371094 312.234375 C 557.730469 312.011719 557.234375 311.472656 557.011719 310.777344 C 555.675781 306.425781 553.914062 302.164062 551.78125 298.132812 C 551.441406 297.476562 551.410156 296.734375 551.703125 296.128906 L 563.167969 271.988281 C 564.140625 269.921875 563.808594 267.503906 562.320312 265.832031 C 559.625 262.785156 556.769531 259.921875 553.839844 257.328125 C 552.203125 255.867188 549.644531 255.535156 547.675781 256.480469 L 523.542969 267.941406 C 522.925781 268.234375 522.144531 268.191406 521.539062 267.878906 C 519.398438 266.734375 517.371094 265.769531 515.328125 264.925781 C 513.183594 264.050781 511.003906 263.277344 508.886719 262.640625 C 508.171875 262.414062 507.632812 261.914062 507.40625 261.265625 L 498.453125 236.070312 C 497.65625 233.910156 495.699219 232.445312 493.496094 232.335938 C 489.664062 232.09375 485.660156 232.09375 481.476562 232.335938 C 479.210938 232.484375 477.265625 233.964844 476.515625 236.09375 L 467.570312 261.277344 C 467.34375 261.914062 466.804688 262.414062 466.109375 262.632812 C 461.757812 263.96875 457.5 265.730469 453.464844 267.863281 C 452.820312 268.199219 452.078125 268.242188 451.460938 267.945312 L 427.320312 256.480469 C 425.300781 255.527344 422.792969 255.871094 421.164062 257.324219 C 418.117188 260.019531 415.253906 262.875 412.660156 265.804688 C 411.179688 267.46875 410.84375 269.949219 411.816406 271.96875 L 423.273438 296.101562 C 423.570312 296.726562 423.542969 297.464844 423.210938 298.105469 C 422.066406 300.246094 421.101562 302.273438 420.257812 304.316406 C 419.382812 306.460938 418.609375 308.640625 417.972656 310.757812 C 417.746094 311.472656 417.25 312.011719 416.597656 312.238281 L 391.402344 321.191406 C 389.246094 321.988281 387.777344 323.945312 387.667969 326.148438 C 387.425781 330.027344 387.425781 333.949219 387.667969 338.167969 C 387.816406 340.433594 389.296875 342.378906 391.425781 343.128906 Z M 447.066406 315.402344 C 453.863281 298.996094 469.742188 288.394531 487.519531 288.394531 C 493.261719 288.394531 498.890625 289.519531 504.242188 291.734375 C 526.519531 300.964844 537.136719 326.613281 527.910156 348.910156 C 521.113281 365.316406 505.234375 375.914062 487.460938 375.914062 C 481.714844 375.914062 476.089844 374.792969 470.734375 372.578125 C 448.457031 363.347656 437.839844 337.699219 447.066406 315.402344 Z M 447.066406 315.402344 "/>
</g>
<g clip-path="url(#clip5)" clip-rule="nonzero">
<path style=" stroke:none;fill-rule:nonzero;fill:rgb(2.749634%,3.138733%,10.198975%);fill-opacity:1;" d="M 301.628906 238.601562 L 316.707031 243.960938 C 317.089844 244.09375 317.386719 244.414062 317.519531 244.832031 C 318.320312 247.4375 319.375 249.988281 320.652344 252.40625 C 320.855469 252.796875 320.875 253.242188 320.699219 253.605469 L 313.835938 268.058594 C 313.25 269.296875 313.449219 270.742188 314.339844 271.746094 C 315.953125 273.570312 317.664062 275.285156 319.417969 276.835938 C 320.398438 277.710938 321.929688 277.910156 323.109375 277.34375 L 337.558594 270.480469 C 337.929688 270.308594 338.398438 270.332031 338.757812 270.519531 C 340.039062 271.203125 341.253906 271.78125 342.476562 272.289062 C 343.761719 272.8125 345.066406 273.273438 346.335938 273.65625 C 346.761719 273.792969 347.085938 274.089844 347.222656 274.480469 L 352.582031 289.566406 C 353.058594 290.859375 354.230469 291.734375 355.550781 291.800781 C 356.699219 291.875 357.882812 291.910156 359.074219 291.910156 C 360.261719 291.910156 361.496094 291.875 362.746094 291.800781 C 364.101562 291.710938 365.269531 290.828125 365.71875 289.550781 L 371.074219 274.472656 C 371.207031 274.089844 371.53125 273.792969 371.949219 273.660156 C 374.554688 272.859375 377.105469 271.804688 379.519531 270.527344 C 379.90625 270.328125 380.347656 270.300781 380.71875 270.480469 L 395.171875 277.34375 C 395.632812 277.5625 396.140625 277.675781 396.644531 277.675781 C 397.464844 277.675781 398.253906 277.378906 398.859375 276.839844 C 400.683594 275.226562 402.398438 273.515625 403.953125 271.761719 C 404.839844 270.765625 405.039062 269.28125 404.457031 268.070312 L 397.597656 253.621094 C 397.417969 253.246094 397.4375 252.804688 397.632812 252.421875 C 398.320312 251.140625 398.898438 249.925781 399.402344 248.703125 C 399.925781 247.417969 400.390625 246.113281 400.773438 244.84375 C 400.90625 244.417969 401.203125 244.09375 401.59375 243.957031 L 416.679688 238.597656 C 417.972656 238.121094 418.851562 236.949219 418.917969 235.628906 C 419.0625 233.308594 419.0625 230.957031 418.917969 228.433594 C 418.828125 227.078125 417.941406 225.910156 416.664062 225.460938 L 401.585938 220.105469 C 401.203125 219.972656 400.90625 219.648438 400.773438 219.230469 C 399.976562 216.625 398.917969 214.074219 397.644531 211.660156 C 397.441406 211.269531 397.421875 210.820312 397.59375 210.460938 L 404.460938 196.007812 C 405.042969 194.769531 404.84375 193.320312 403.953125 192.320312 C 402.339844 190.496094 400.628906 188.78125 398.875 187.226562 C 397.894531 186.355469 396.363281 186.152344 395.183594 186.722656 L 380.734375 193.582031 C 380.363281 193.757812 379.898438 193.730469 379.535156 193.546875 C 378.253906 192.859375 377.039062 192.28125 375.816406 191.777344 C 374.53125 191.253906 373.226562 190.789062 371.960938 190.40625 C 371.53125 190.273438 371.207031 189.976562 371.070312 189.585938 L 365.710938 174.5 C 365.234375 173.207031 364.0625 172.328125 362.742188 172.261719 C 360.449219 172.117188 358.054688 172.117188 355.546875 172.261719 C 354.191406 172.351562 353.023438 173.238281 352.578125 174.515625 L 347.21875 189.59375 C 347.085938 189.976562 346.761719 190.273438 346.34375 190.40625 C 343.742188 191.203125 341.191406 192.261719 338.773438 193.535156 C 338.386719 193.738281 337.945312 193.761719 337.574219 193.585938 L 323.121094 186.71875 C 321.910156 186.148438 320.410156 186.355469 319.433594 187.226562 C 317.609375 188.839844 315.894531 190.546875 314.34375 192.304688 C 313.457031 193.296875 313.253906 194.785156 313.835938 195.996094 L 320.699219 210.445312 C 320.875 210.820312 320.859375 211.261719 320.660156 211.644531 C 319.972656 212.925781 319.398438 214.140625 318.890625 215.363281 C 318.367188 216.648438 317.90625 217.953125 317.523438 219.21875 C 317.386719 219.648438 317.089844 219.96875 316.699219 220.105469 L 301.613281 225.46875 C 300.320312 225.945312 299.445312 227.117188 299.378906 228.4375 C 299.230469 230.757812 299.230469 233.105469 299.378906 235.632812 C 299.46875 236.988281 300.351562 238.152344 301.628906 238.601562 Z M 334.945312 222 C 339.015625 212.175781 348.519531 205.832031 359.164062 205.832031 C 362.605469 205.832031 365.972656 206.503906 369.179688 207.828125 C 382.519531 213.355469 388.875 228.710938 383.351562 242.0625 C 379.28125 251.886719 369.773438 258.234375 359.128906 258.234375 C 355.691406 258.234375 352.320312 257.5625 349.117188 256.234375 C 335.777344 250.707031 329.417969 235.351562 334.945312 222 Z M 334.945312 222 "/>
</g>
<g clip-path="url(#clip6)" clip-rule="nonzero">
<path style=" stroke:none;fill-rule:nonzero;fill:rgb(2.749634%,3.138733%,10.198975%);fill-opacity:1;" d="M 257.855469 359.917969 L 272.933594 365.273438 C 273.316406 365.410156 273.617188 365.730469 273.746094 366.148438 C 274.546875 368.753906 275.601562 371.304688 276.878906 373.71875 C 277.082031 374.109375 277.101562 374.558594 276.925781 374.917969 L 270.0625 389.375 C 269.480469 390.609375 269.675781 392.058594 270.566406 393.058594 C 272.183594 394.886719 273.890625 396.597656 275.644531 398.152344 C 276.628906 399.027344 278.15625 399.226562 279.339844 398.660156 L 293.789062 391.796875 C 294.15625 391.621094 294.625 391.648438 294.988281 391.835938 C 296.269531 392.519531 297.484375 393.097656 298.707031 393.601562 C 299.992188 394.128906 301.296875 394.589844 302.5625 394.972656 C 302.992188 395.109375 303.3125 395.40625 303.449219 395.796875 L 308.8125 410.878906 C 309.289062 412.171875 310.460938 413.050781 311.78125 413.117188 C 312.929688 413.1875 314.113281 413.226562 315.304688 413.226562 C 316.492188 413.226562 317.722656 413.1875 318.976562 413.117188 C 320.332031 413.027344 321.496094 412.140625 321.945312 410.867188 L 327.304688 395.789062 C 327.4375 395.40625 327.761719 395.109375 328.175781 394.976562 C 330.78125 394.175781 333.332031 393.121094 335.75 391.84375 C 336.132812 391.644531 336.578125 391.617188 336.949219 391.796875 L 351.402344 398.660156 C 351.859375 398.878906 352.371094 398.992188 352.871094 398.992188 C 353.695312 398.992188 354.484375 398.695312 355.089844 398.15625 C 356.914062 396.542969 358.628906 394.832031 360.179688 393.078125 C 361.066406 392.082031 361.269531 390.59375 360.6875 389.386719 L 353.824219 374.933594 C 353.648438 374.5625 353.664062 374.121094 353.863281 373.738281 C 354.546875 372.453125 355.125 371.242188 355.632812 370.019531 C 356.15625 368.730469 356.617188 367.429688 357 366.160156 C 357.136719 365.730469 357.433594 365.410156 357.824219 365.273438 L 372.910156 359.914062 C 374.203125 359.4375 375.078125 358.265625 375.144531 356.945312 C 375.289062 354.621094 375.289062 352.273438 375.144531 349.75 C 375.054688 348.390625 374.171875 347.226562 372.894531 346.777344 L 357.816406 341.421875 C 357.433594 341.285156 357.136719 340.964844 357.003906 340.546875 C 356.203125 337.941406 355.148438 335.390625 353.871094 332.976562 C 353.667969 332.585938 353.648438 332.136719 353.824219 331.777344 L 360.6875 317.320312 C 361.273438 316.085938 361.074219 314.636719 360.183594 313.636719 C 358.570312 311.808594 356.859375 310.097656 355.105469 308.542969 C 354.125 307.667969 352.59375 307.46875 351.414062 308.035156 L 336.960938 314.898438 C 336.59375 315.074219 336.125 315.046875 335.765625 314.859375 C 334.484375 314.175781 333.269531 313.597656 332.046875 313.09375 C 330.757812 312.566406 329.457031 312.105469 328.1875 311.722656 C 327.757812 311.589844 327.4375 311.289062 327.300781 310.902344 L 321.941406 295.816406 C 321.464844 294.523438 320.292969 293.644531 318.972656 293.578125 C 316.679688 293.433594 314.28125 293.433594 311.777344 293.578125 C 310.417969 293.667969 309.253906 294.554688 308.804688 295.828125 L 303.449219 310.90625 C 303.3125 311.289062 302.992188 311.589844 302.574219 311.71875 C 299.96875 312.519531 297.417969 313.574219 295.003906 314.851562 C 294.617188 315.054688 294.171875 315.078125 293.804688 314.898438 L 279.351562 308.035156 C 278.140625 307.464844 276.636719 307.671875 275.664062 308.539062 C 273.839844 310.15625 272.125 311.863281 270.570312 313.617188 C 269.683594 314.613281 269.480469 316.101562 270.0625 317.3125 L 276.925781 331.761719 C 277.101562 332.132812 277.085938 332.578125 276.886719 332.957031 C 276.203125 334.242188 275.625 335.457031 275.121094 336.675781 C 274.59375 337.964844 274.132812 339.265625 273.75 340.535156 C 273.617188 340.964844 273.316406 341.285156 272.929688 341.421875 L 257.84375 346.78125 C 256.550781 347.257812 255.671875 348.429688 255.605469 349.75 C 255.460938 352.074219 255.460938 354.421875 255.605469 356.945312 C 255.695312 358.304688 256.582031 359.46875 257.855469 359.917969 Z M 291.171875 343.316406 C 295.242188 333.492188 304.75 327.144531 315.394531 327.144531 C 318.832031 327.144531 322.203125 327.820312 325.40625 329.144531 C 338.746094 334.671875 345.101562 350.027344 339.578125 363.378906 C 335.507812 373.203125 326 379.550781 315.359375 379.550781 C 311.917969 379.550781 308.550781 378.875 305.34375 377.550781 C 292.003906 372.023438 285.648438 356.667969 291.171875 343.316406 Z M 291.171875 343.316406 "/>
</g>
<g clip-path="url(#clip7)" clip-rule="nonzero">
<path style=" stroke:none;fill-rule:nonzero;fill:rgb(2.749634%,3.138733%,10.198975%);fill-opacity:1;" d="M 361.019531 616.359375 L 372.519531 620.445312 C 372.8125 620.546875 373.039062 620.792969 373.140625 621.113281 C 373.75 623.101562 374.554688 625.046875 375.53125 626.890625 C 375.683594 627.1875 375.699219 627.527344 375.566406 627.804688 L 370.328125 638.832031 C 369.882812 639.773438 370.035156 640.878906 370.714844 641.644531 C 371.945312 643.035156 373.25 644.34375 374.589844 645.527344 C 375.339844 646.195312 376.503906 646.347656 377.40625 645.914062 L 388.429688 640.679688 C 388.710938 640.546875 389.070312 640.566406 389.34375 640.707031 C 390.320312 641.230469 391.25 641.671875 392.179688 642.058594 C 393.160156 642.457031 394.15625 642.8125 395.125 643.101562 C 395.449219 643.203125 395.695312 643.433594 395.800781 643.730469 L 399.890625 655.238281 C 400.253906 656.222656 401.148438 656.894531 402.15625 656.945312 C 403.03125 657 403.933594 657.027344 404.84375 657.027344 C 405.75 657.027344 406.691406 657 407.644531 656.945312 C 408.679688 656.875 409.570312 656.199219 409.910156 655.226562 L 413.996094 643.722656 C 414.101562 643.433594 414.347656 643.207031 414.664062 643.105469 C 416.652344 642.496094 418.597656 641.6875 420.441406 640.714844 C 420.734375 640.5625 421.074219 640.542969 421.355469 640.679688 L 432.382812 645.914062 C 432.730469 646.082031 433.121094 646.167969 433.503906 646.167969 C 434.132812 646.167969 434.734375 645.941406 435.195312 645.53125 C 436.585938 644.296875 437.894531 642.996094 439.078125 641.65625 C 439.753906 640.894531 439.910156 639.761719 439.464844 638.839844 L 434.230469 627.816406 C 434.097656 627.53125 434.109375 627.191406 434.261719 626.902344 C 434.78125 625.921875 435.222656 624.996094 435.609375 624.0625 C 436.007812 623.082031 436.363281 622.089844 436.652344 621.121094 C 436.757812 620.792969 436.984375 620.546875 437.28125 620.445312 L 448.789062 616.355469 C 449.777344 615.992188 450.445312 615.097656 450.496094 614.089844 C 450.605469 612.320312 450.605469 610.527344 450.496094 608.601562 C 450.425781 607.566406 449.75 606.675781 448.777344 606.335938 L 437.277344 602.246094 C 436.984375 602.144531 436.757812 601.898438 436.65625 601.582031 C 436.046875 599.59375 435.238281 597.648438 434.265625 595.804688 C 434.109375 595.507812 434.097656 595.167969 434.230469 594.890625 L 439.46875 583.863281 C 439.914062 582.917969 439.761719 581.816406 439.082031 581.050781 C 437.851562 579.660156 436.546875 578.351562 435.207031 577.167969 C 434.457031 576.5 433.292969 576.347656 432.390625 576.78125 L 421.367188 582.015625 C 421.085938 582.148438 420.726562 582.128906 420.453125 581.984375 C 419.476562 581.460938 418.546875 581.023438 417.617188 580.636719 C 416.632812 580.238281 415.640625 579.882812 414.671875 579.59375 C 414.347656 579.488281 414.101562 579.261719 413.996094 578.964844 L 409.90625 567.457031 C 409.542969 566.46875 408.648438 565.800781 407.640625 565.75 C 405.890625 565.640625 404.0625 565.640625 402.152344 565.75 C 401.117188 565.816406 400.226562 566.492188 399.886719 567.46875 L 395.800781 578.96875 C 395.695312 579.261719 395.449219 579.488281 395.132812 579.589844 C 393.144531 580.199219 391.199219 581.003906 389.355469 581.980469 C 389.0625 582.132812 388.722656 582.152344 388.441406 582.015625 L 377.414062 576.777344 C 376.492188 576.34375 375.347656 576.5 374.601562 577.164062 C 373.210938 578.394531 371.902344 579.699219 370.71875 581.039062 C 370.042969 581.796875 369.886719 582.929688 370.332031 583.855469 L 375.566406 594.878906 C 375.699219 595.164062 375.6875 595.5 375.539062 595.792969 C 375.015625 596.769531 374.574219 597.695312 374.1875 598.628906 C 373.789062 599.609375 373.433594 600.605469 373.144531 601.570312 C 373.039062 601.898438 372.8125 602.144531 372.515625 602.25 L 361.007812 606.339844 C 360.019531 606.703125 359.351562 607.597656 359.300781 608.601562 C 359.191406 610.375 359.191406 612.167969 359.300781 614.09375 C 359.371094 615.128906 360.046875 616.015625 361.019531 616.359375 Z M 386.433594 603.695312 C 389.539062 596.199219 396.792969 591.359375 404.910156 591.359375 C 407.535156 591.359375 410.105469 591.871094 412.550781 592.882812 C 422.726562 597.097656 427.578125 608.816406 423.363281 619 C 420.257812 626.492188 413.003906 631.335938 404.886719 631.335938 C 402.261719 631.335938 399.691406 630.824219 397.246094 629.8125 C 387.070312 625.59375 382.21875 613.878906 386.433594 603.695312 Z M 386.433594 603.695312 "/>
</g>
<g clip-path="url(#clip8)" clip-rule="nonzero">
<path style=" stroke:none;fill-rule:nonzero;fill:rgb(2.749634%,3.138733%,10.198975%);fill-opacity:1;" d="M 687.722656 388.808594 C 681.835938 344.4375 687.367188 336.90625 707.773438 305.980469 C 680.796875 332.03125 662.46875 332.363281 623.9375 337.082031 C 674.753906 341.292969 675.617188 349.15625 687.722656 388.808594 Z M 625.996094 370.289062 C 626.175781 384.621094 624.449219 397.558594 617.875 405.757812 C 589.371094 442.285156 583.148438 417.296875 580.894531 396.671875 C 575.359375 348.449219 572.4375 301.617188 582.972656 256.183594 C 591.273438 220.539062 604.929688 252.171875 604.929688 256.183594 C 605.96875 313.3125 659.371094 280.460938 669.398438 287.636719 C 682.699219 297.429688 687.367188 297.761719 686.152344 294.792969 C 684.601562 290.960938 672.671875 281.347656 657.644531 280.128906 C 601.984375 275.765625 599.394531 211.101562 670.4375 230.839844 C 675.109375 222.796875 632.394531 220.714844 632.570312 216.859375 C 633.789062 181.394531 619.777344 175.457031 620.640625 178.425781 C 628.609375 205.496094 623.761719 227.339844 606.300781 228.402344 C 586.25 229.796875 586.070312 220.894531 583.480469 204.808594 C 578.480469 174.75 578.125 130.023438 590.742188 103.972656 C 601.628906 81.441406 603.535156 88.089844 624.800781 103.109375 C 652.800781 122.84375 648.484375 145.75 650.210938 130.53125 C 648.128906 102.929688 636.554688 99.785156 623.40625 92.273438 C 605.789062 82.152344 615.109375 79.160156 627.902344 73.578125 C 665.769531 57.164062 699.121094 70.964844 729.019531 110.441406 C 746.304688 133.523438 740.441406 121.449219 731.789062 134.917969 C 721.074219 151.332031 735.238281 163.382812 707.953125 161.988281 C 692.039062 161.300781 681.878906 127.34375 651.40625 173.574219 C 650.71875 174.527344 650.363281 175.125 650.386719 175.101562 C 650.71875 174.570312 651.050781 174.085938 651.40625 173.574219 C 655.566406 167.835938 672.539062 148.964844 699.808594 172.644531 C 711.582031 182.96875 745.441406 157.625 748.894531 208.820312 C 749.25 214.933594 772.242188 189.082031 744.070312 165.488281 C 741.8125 163.5625 741.8125 126.878906 756 155.1875 C 784.859375 159.199219 808.007812 179.820312 823.058594 207.070312 C 839.480469 236.953125 842.070312 257.222656 826.6875 288.679688 C 818.898438 304.40625 809.582031 316.304688 793.84375 296.898438 C 778.816406 278.378906 768.4375 240.628906 732.496094 261.253906 C 730.414062 264.046875 748.738281 251.996094 771.027344 281.167969 C 777.601562 289.898438 781.914062 295.503906 785.214844 299.511719 C 794.023438 310.34375 817.878906 315.0625 781.5625 311.054688 C 756.863281 308.085938 731.457031 310.011719 731.457031 374.476562 C 732.140625 413.796875 676.480469 419.402344 672.164062 398.246094 C 672.164062 439.316406 745.796875 428.484375 744.757812 370.113281 C 744.246094 333.429688 756.863281 317.34375 797.828125 320.84375 C 761.53125 349.488281 802.144531 359.988281 806.128906 376.757812 C 812.679688 404.890625 785.546875 411.007812 785.214844 412.046875 C 798.335938 419.226562 829.453125 384.621094 811.816406 366.789062 C 799.730469 354.738281 797.296875 344.261719 800.0625 336.394531 C 807.5 316.304688 837.578125 323.460938 847.933594 337.261719 C 852.605469 343.550781 855.371094 352.632812 859.355469 366.101562 C 870.929688 405.578125 872.148438 459.230469 855.039062 500.8125 C 847.425781 519.355469 841.03125 537.875 819.429688 524.757812 C 809.757812 519 810.953125 506.417969 802.144531 495.761719 C 786.230469 476.535156 755.136719 471.105469 743.207031 494.367188 C 724.195312 530.875 707.773438 502.917969 705.339844 501.875 C 705.183594 501.875 706.910156 525.46875 724.019531 522.144531 C 738.539062 519.355469 749.25 494.519531 764.121094 494.519531 C 832.042969 494.519531 765.492188 546.957031 765.492188 569.332031 C 765.492188 574.203125 764.808594 581.027344 771.714844 584.527344 C 770.519531 573.164062 779.328125 548.707031 794.707031 542.0625 C 827.550781 527.550781 827.726562 554.996094 820.292969 573.871094 C 791.078125 630.472656 771.535156 648.128906 751.507812 653.199219 C 728.335938 660.710938 704.300781 659.847656 702.75 621.742188 C 701.710938 596.933594 692.722656 581.027344 668.867188 588.890625 C 651.757812 594.652344 617.542969 557.082031 638.457031 589.601562 C 655.917969 612.839844 692.394531 588.203125 683.5625 612.484375 C 678.558594 626.992188 671.125 623.492188 655.742188 622.453125 C 637.0625 621.035156 622.898438 619.128906 658.6875 635.035156 C 677.695312 643.585938 685.820312 609.871094 693.253906 647.261719 C 695.667969 660.179688 711.402344 644.117188 708.636719 671.367188 C 707.953125 671.542969 707.421875 671.71875 706.734375 671.898438 C 624.269531 690.0625 593.507812 641.148438 587.289062 579.808594 C 582.109375 527.042969 597.316406 568.265625 615.640625 544.851562 C 627.214844 530.1875 638.789062 494.367188 665.945312 518.644531 C 666.101562 505.199219 635.335938 489.46875 624.269531 509.207031 C 619.957031 518.292969 615.640625 525.292969 611.480469 530.363281 C 592.644531 554.113281 585.5625 543.8125 581.402344 523.363281 C 577.261719 502.386719 578.480469 482.117188 582.109375 462.023438 C 592.46875 404.890625 656.25 433.027344 663.511719 462.910156 C 666.808594 418.515625 617.542969 423.941406 622.210938 418.339844 C 640.007812 393.703125 625.996094 367.144531 625.996094 370.289062 "/>
</g>
</g>
</svg>
